<svg width="238" height="230" viewBox="0 0 238 230" fill="none" xmlns="http://www.w3.org/2000/svg">
<g id="gift_box">
<path id="ribbonLeft" d="M118.624 96.3238L116.855 96.7097C116.103 96.8727 98.3182 100.572 89.3953 91.0984C85.1571 86.5934 82.3751 81.1079 81.5569 75.6624C80.6832 69.8367 82.1116 64.7113 85.6009 61.2325C89.0902 57.7537 94.0994 56.4359 99.7216 57.5164C104.992 58.5312 110.217 61.5698 114.453 66.0749C123.362 75.5509 119.218 93.754 119.035 94.5229L118.624 96.3238ZM92.4935 63.6251C91.4105 64.0123 90.4217 64.6364 89.595 65.4546C87.4814 67.5642 86.6382 70.8658 87.2207 74.7505C87.8587 79.0068 90.0942 83.3547 93.5142 86.9907C98.8313 92.6449 109.543 91.8502 113.84 91.2385C114.552 86.8335 115.673 75.8224 110.356 70.1683C106.936 66.5322 102.789 64.0939 98.6815 63.3078C96.3794 62.8562 94.2686 62.9791 92.4935 63.6251Z" fill="#6C63FF"/>
<path id="ribbonRight" d="M116 96.4038L115.598 94.5858C115.429 93.8112 111.59 75.5366 120.657 66.2235C124.968 61.7928 130.251 58.8485 135.53 57.9338C141.169 56.9505 146.161 58.3597 149.587 61.8986C153.012 65.4374 154.36 70.5885 153.389 76.397C152.48 81.8282 149.603 87.2594 145.293 91.6987C136.231 100.997 118.513 96.9956 117.762 96.8183L116 96.4038ZM142.675 64.1739C140.911 63.4936 138.792 63.3364 136.492 63.7395C132.37 64.4569 128.171 66.8209 124.704 70.397C119.293 75.9568 120.227 86.9764 120.868 91.4043C125.153 92.076 135.846 93.0794 141.263 87.5167C144.744 83.9407 147.051 79.6357 147.762 75.3908C148.411 71.5175 147.623 68.2016 145.543 66.0549C144.729 65.2216 143.749 64.5799 142.672 64.1739H142.675Z" fill="#6C63FF"/>
<path id="boxBottom" d="M191.805 102.284H41.2056V228.251H191.805V102.284Z" fill="#F5F5F5"/>
<path id="boxShadow" opacity="0.1" d="M191.805 95.5349H41.2056V127.027H191.805V95.5349Z" fill="black"/>
<path id="boxTop" d="M200.533 93.2852H32.4741V124.778H200.533V93.2852Z" fill="#F5F5F5"/>
<g id="ribbonMain">
<path id="Vector" d="M130.692 124.778H102.318V228.251H130.692V124.778Z" fill="#6C63FF"/>
<path id="Vector_2" d="M130.692 93.2852H102.318V124.778H130.692V93.2852Z" fill="#6C63FF"/>
</g>
</g>
</svg>
